<svg id="svg" version="1.1" width="400" height="239.3063583815029" viewBox="0 0 400 239.3063583815029" xmlns="http://www.w3.org/2000/svg" xmlns:xlink="http://www.w3.org/1999/xlink" style="display: block;"><g id="svgg"><path id="path0" d="M200.598 86.984 C 199.743 87.140,198.773 87.440,198.444 87.651 C 198.115 87.862,197.393 88.101,196.840 88.183 C 196.288 88.265,195.480 88.536,195.045 88.784 C 194.611 89.033,193.752 89.307,193.137 89.394 C 192.523 89.480,191.896 89.700,191.745 89.882 C 191.594 90.064,190.936 90.327,190.283 90.467 C 189.629 90.607,188.855 90.876,188.563 91.064 C 188.270 91.253,187.600 91.483,187.074 91.577 C 186.547 91.670,185.716 91.947,185.228 92.193 C 184.739 92.438,184.147 92.640,183.911 92.641 C 183.676 92.643,182.917 92.907,182.226 93.229 C 181.534 93.551,180.565 93.885,180.071 93.972 C 179.578 94.058,178.959 94.262,178.695 94.425 C 178.432 94.588,177.624 94.857,176.900 95.024 C 176.176 95.190,175.351 95.472,175.067 95.649 C 174.783 95.827,174.051 96.098,173.441 96.252 C 172.831 96.405,171.936 96.733,171.453 96.979 C 170.970 97.225,170.302 97.430,169.967 97.434 C 169.633 97.438,168.821 97.707,168.163 98.030 C 167.504 98.354,166.709 98.620,166.396 98.621 C 166.082 98.623,165.490 98.830,165.079 99.082 C 164.669 99.334,163.902 99.617,163.375 99.710 C 162.849 99.803,162.095 100.070,161.700 100.303 C 161.305 100.536,160.510 100.804,159.933 100.899 C 159.357 100.993,158.549 101.262,158.138 101.496 C 157.727 101.730,156.960 101.997,156.433 102.088 C 155.907 102.180,155.314 102.395,155.117 102.567 C 154.919 102.738,154.189 102.998,153.494 103.144 C 152.799 103.290,151.991 103.560,151.699 103.745 C 151.406 103.930,150.628 104.195,149.970 104.334 C 149.312 104.473,148.346 104.807,147.825 105.076 C 147.303 105.345,146.655 105.566,146.385 105.566 C 145.928 105.566,144.231 106.343,143.793 106.752 C 143.687 106.851,143.672 107.217,143.759 107.566 L 143.918 108.199 204.057 108.199 L 264.196 108.199 264.458 107.623 C 264.810 106.851,263.238 105.566,261.942 105.566 C 261.700 105.566,261.075 105.345,260.553 105.076 C 260.032 104.807,259.066 104.469,258.408 104.326 C 257.750 104.182,256.836 103.864,256.377 103.618 C 255.918 103.373,255.272 103.171,254.941 103.171 C 254.610 103.170,254.016 102.974,253.621 102.734 C 253.226 102.494,252.381 102.167,251.743 102.008 C 251.106 101.848,250.352 101.570,250.068 101.390 C 249.784 101.211,249.066 100.988,248.474 100.895 C 247.882 100.803,247.074 100.536,246.679 100.303 C 246.284 100.070,245.530 99.803,245.003 99.710 C 244.476 99.617,243.722 99.348,243.327 99.111 C 242.932 98.875,242.191 98.607,241.679 98.516 C 241.168 98.425,240.361 98.143,239.887 97.889 C 239.413 97.635,238.755 97.426,238.424 97.425 C 238.093 97.423,237.283 97.157,236.625 96.834 C 235.966 96.510,235.208 96.241,234.940 96.237 C 234.672 96.233,234.043 96.021,233.543 95.767 C 233.044 95.512,232.102 95.189,231.451 95.049 C 230.800 94.910,230.028 94.644,229.736 94.459 C 229.443 94.274,228.827 94.048,228.366 93.956 C 227.905 93.865,227.202 93.602,226.803 93.373 C 226.404 93.144,225.601 92.880,225.019 92.787 C 224.436 92.694,223.632 92.421,223.231 92.180 C 222.830 91.940,222.040 91.673,221.475 91.588 C 220.911 91.503,220.051 91.220,219.564 90.959 C 219.077 90.698,218.511 90.485,218.307 90.485 C 218.102 90.485,217.526 90.276,217.026 90.021 C 216.526 89.767,215.563 89.439,214.884 89.294 C 214.206 89.148,213.434 88.888,213.169 88.716 C 212.904 88.544,212.256 88.323,211.730 88.227 C 211.203 88.130,210.449 87.858,210.054 87.621 C 208.588 86.745,203.712 86.417,200.598 86.984 M163.136 113.564 C 162.083 113.719,160.898 114.016,160.503 114.222 C 160.108 114.429,159.395 114.668,158.920 114.754 C 158.444 114.840,157.872 115.113,157.647 115.361 C 157.423 115.609,156.873 115.880,156.424 115.964 C 155.976 116.049,155.524 116.268,155.421 116.453 C 155.317 116.638,155.000 116.876,154.716 116.982 C 154.027 117.239,149.642 120.933,149.625 121.270 C 149.617 121.415,149.369 121.796,149.072 122.116 C 148.104 123.163,146.759 125.239,146.148 126.631 C 145.945 127.092,145.565 127.867,145.302 128.354 C 145.039 128.841,144.823 129.456,144.823 129.721 C 144.823 129.986,144.581 130.827,144.285 131.589 C 143.555 133.466,143.462 142.031,144.158 143.302 C 144.385 143.716,144.645 144.524,144.736 145.098 C 144.828 145.671,145.154 146.614,145.461 147.193 C 145.769 147.772,146.020 148.429,146.020 148.652 C 146.020 148.875,146.233 149.251,146.493 149.486 C 146.753 149.721,147.037 150.142,147.124 150.421 C 147.211 150.699,147.510 151.213,147.789 151.562 C 148.067 151.912,148.563 152.558,148.891 152.999 C 150.174 154.725,154.002 158.229,154.603 158.229 C 154.713 158.229,154.989 158.434,155.217 158.686 C 155.444 158.937,155.910 159.213,156.252 159.299 C 156.594 159.385,157.140 159.664,157.464 159.919 C 157.788 160.174,158.199 160.383,158.376 160.383 C 158.553 160.383,159.373 160.645,160.199 160.964 C 161.024 161.284,162.669 161.668,163.854 161.817 C 165.039 161.966,166.398 162.190,166.874 162.313 C 167.350 162.436,171.767 162.536,176.688 162.535 C 189.766 162.532,190.326 162.280,190.545 156.287 C 190.638 153.741,190.750 152.912,191.050 152.567 C 191.263 152.324,191.503 151.772,191.584 151.341 C 191.710 150.674,194.233 147.696,194.672 147.696 C 194.735 147.696,196.336 146.187,198.231 144.344 C 200.513 142.123,201.958 140.900,202.513 140.722 C 202.974 140.574,203.481 140.350,203.639 140.224 C 204.315 139.689,206.394 140.761,208.182 142.566 C 210.063 144.466,211.131 144.820,211.131 143.543 C 211.131 142.496,211.654 141.951,212.658 141.951 C 214.080 141.951,214.270 142.292,214.397 145.074 C 214.546 148.343,214.560 148.395,215.542 149.373 C 216.004 149.833,216.386 150.319,216.390 150.452 C 216.394 150.586,216.634 151.125,216.923 151.649 C 217.365 152.452,217.470 153.115,217.581 155.835 C 217.730 159.464,218.378 160.956,220.076 161.582 C 220.488 161.734,221.180 162.012,221.612 162.198 C 222.472 162.569,241.271 162.719,241.631 162.358 C 241.730 162.259,243.150 162.004,244.788 161.792 C 246.672 161.547,247.919 161.268,248.180 161.034 C 248.408 160.830,248.999 160.588,249.493 160.496 C 249.988 160.404,250.635 160.140,250.930 159.910 C 251.225 159.680,251.735 159.408,252.065 159.306 C 252.394 159.204,252.952 158.893,253.305 158.615 C 253.658 158.337,254.342 157.840,254.825 157.510 C 255.801 156.845,259.725 153.102,259.725 152.836 C 259.725 152.743,260.048 152.298,260.443 151.849 C 260.838 151.399,261.161 150.886,261.161 150.709 C 261.161 150.532,261.317 150.258,261.508 150.100 C 261.699 149.942,261.981 149.417,262.137 148.934 C 262.292 148.450,262.554 147.893,262.719 147.696 C 262.885 147.499,263.205 146.691,263.430 145.901 C 263.655 145.111,263.945 144.336,264.073 144.180 C 264.759 143.346,264.760 131.945,264.075 131.104 C 263.947 130.948,263.670 130.227,263.458 129.503 C 263.134 128.397,262.625 127.171,261.901 125.754 C 261.823 125.601,261.302 124.822,260.742 124.022 C 260.183 123.221,259.725 122.462,259.725 122.333 C 259.725 122.205,259.517 121.988,259.262 121.852 C 259.008 121.716,258.733 121.394,258.651 121.138 C 258.570 120.881,258.299 120.606,258.049 120.527 C 257.799 120.447,257.528 120.173,257.447 119.916 C 257.365 119.659,257.175 119.449,257.024 119.449 C 256.873 119.449,256.530 119.237,256.262 118.977 C 255.339 118.082,254.098 117.156,253.441 116.872 C 253.079 116.715,252.783 116.486,252.783 116.362 C 252.783 116.238,252.465 116.066,252.076 115.981 C 251.687 115.896,251.122 115.632,250.819 115.395 C 250.517 115.158,249.892 114.885,249.431 114.789 C 248.971 114.693,248.340 114.454,248.031 114.258 C 246.470 113.268,244.942 113.233,204.069 113.258 C 175.397 113.275,164.543 113.356,163.136 113.564 " stroke="none" fill="#1f2756" fill-rule="evenodd"></path><path id="path1" d="M0.000 119.689 L 0.000 239.378 200.000 239.378 L 400.000 239.378 400.000 119.689 L 400.000 0.000 200.000 0.000 L 0.000 0.000 0.000 119.689 M207.838 85.899 C 208.298 86.183,209.019 86.415,209.440 86.415 C 210.209 86.415,211.127 86.777,211.394 87.185 C 211.473 87.306,212.145 87.487,212.887 87.587 C 213.628 87.688,214.426 87.941,214.658 88.149 C 214.891 88.357,215.619 88.600,216.278 88.690 C 216.936 88.779,217.749 89.045,218.083 89.280 C 218.418 89.515,219.168 89.788,219.749 89.886 C 220.330 89.984,221.079 90.256,221.414 90.490 C 221.749 90.724,222.553 90.980,223.202 91.060 C 223.851 91.140,224.577 91.382,224.816 91.599 C 225.055 91.815,225.817 92.081,226.509 92.191 C 227.201 92.300,227.893 92.562,228.046 92.772 C 228.207 92.992,228.890 93.230,229.659 93.335 C 230.392 93.434,231.194 93.699,231.441 93.923 C 231.689 94.146,232.462 94.397,233.159 94.480 C 233.881 94.565,234.609 94.812,234.850 95.053 C 235.083 95.287,235.793 95.552,236.428 95.643 C 237.063 95.734,237.798 95.997,238.061 96.228 C 238.324 96.459,239.132 96.723,239.856 96.814 C 240.584 96.905,241.387 97.172,241.652 97.411 C 241.915 97.648,242.663 97.911,243.314 97.995 C 243.965 98.080,244.719 98.350,244.989 98.596 C 245.260 98.842,245.985 99.096,246.601 99.161 C 247.228 99.227,248.005 99.503,248.369 99.789 C 248.758 100.095,249.364 100.300,249.883 100.300 C 250.382 100.301,251.153 100.551,251.706 100.891 C 252.232 101.216,252.999 101.485,253.409 101.489 C 253.819 101.493,254.416 101.702,254.735 101.953 C 255.054 102.204,255.850 102.483,256.503 102.573 C 257.156 102.662,257.959 102.924,258.288 103.155 C 258.618 103.385,259.355 103.636,259.928 103.712 C 260.500 103.788,261.200 104.062,261.484 104.319 C 261.779 104.588,262.483 104.839,263.134 104.908 C 264.064 105.006,264.449 105.206,265.253 106.011 L 266.236 106.994 265.780 107.775 C 264.921 109.247,269.308 109.149,204.010 109.153 C 144.183 109.156,143.863 109.154,143.387 108.677 C 141.946 107.236,143.340 104.847,145.622 104.847 C 146.021 104.847,146.577 104.633,146.856 104.370 C 147.138 104.105,147.880 103.823,148.525 103.734 C 149.164 103.647,149.871 103.391,150.096 103.166 C 150.330 102.931,151.105 102.681,151.904 102.581 C 152.693 102.483,153.417 102.250,153.565 102.049 C 153.708 101.852,154.351 101.593,154.992 101.473 C 155.633 101.354,156.339 101.091,156.561 100.890 C 156.784 100.689,157.588 100.423,158.348 100.299 C 159.109 100.175,159.917 99.906,160.144 99.701 C 160.371 99.495,161.178 99.226,161.939 99.102 C 162.699 98.979,163.514 98.703,163.749 98.491 C 163.984 98.278,164.642 98.042,165.212 97.966 C 165.782 97.890,166.517 97.631,166.846 97.390 C 167.175 97.149,167.983 96.879,168.642 96.791 C 169.300 96.702,170.108 96.443,170.437 96.214 C 170.766 95.986,171.508 95.731,172.085 95.647 C 172.662 95.564,173.404 95.284,173.733 95.025 C 174.100 94.736,174.699 94.554,175.282 94.554 C 175.947 94.554,176.446 94.374,176.944 93.956 C 177.466 93.517,177.934 93.357,178.704 93.357 C 179.452 93.357,179.885 93.217,180.208 92.869 C 180.479 92.579,181.161 92.303,181.895 92.187 C 182.573 92.080,183.327 91.811,183.572 91.590 C 183.816 91.369,184.596 91.123,185.305 91.044 C 186.036 90.963,186.802 90.714,187.074 90.469 C 187.337 90.231,188.145 89.960,188.869 89.865 C 189.684 89.758,190.296 89.536,190.476 89.283 C 190.651 89.035,191.259 88.808,192.011 88.708 C 192.696 88.617,193.522 88.333,193.848 88.078 C 194.173 87.822,194.776 87.612,195.187 87.612 C 195.598 87.612,196.440 87.343,197.059 87.014 C 197.677 86.685,198.484 86.415,198.852 86.414 C 199.220 86.413,199.844 86.238,200.239 86.024 C 202.046 85.047,206.345 84.976,207.838 85.899 M244.994 112.360 C 245.385 112.616,246.395 112.889,247.330 112.992 C 248.307 113.099,249.155 113.334,249.415 113.570 C 249.656 113.788,250.228 114.070,250.685 114.196 C 251.142 114.323,251.764 114.641,252.067 114.903 C 252.369 115.165,252.789 115.380,252.999 115.380 C 253.209 115.380,253.694 115.650,254.077 115.979 C 254.459 116.308,254.879 116.577,255.009 116.577 C 255.283 116.577,255.531 116.804,258.339 119.627 C 261.135 122.438,261.346 122.687,261.748 123.648 C 261.938 124.103,262.196 124.476,262.320 124.476 C 262.444 124.476,262.620 124.773,262.710 125.135 C 262.801 125.497,263.075 125.979,263.319 126.207 C 263.564 126.434,263.838 127.135,263.929 127.763 C 264.020 128.391,264.280 129.082,264.506 129.299 C 264.781 129.562,264.971 130.262,265.077 131.406 C 265.166 132.364,265.415 133.393,265.643 133.740 C 266.234 134.642,266.239 140.635,265.649 141.535 C 265.428 141.871,265.180 142.883,265.096 143.784 C 265.008 144.732,264.768 145.674,264.526 146.020 C 264.297 146.349,264.029 147.050,263.932 147.576 C 263.835 148.103,263.561 148.749,263.324 149.013 C 263.086 149.276,262.815 149.745,262.720 150.055 C 262.528 150.688,261.665 152.050,260.859 152.990 C 260.564 153.334,260.000 154.005,259.605 154.481 C 259.210 154.956,258.765 155.348,258.616 155.351 C 258.466 155.354,258.286 155.580,258.214 155.853 C 258.143 156.126,257.861 156.408,257.588 156.479 C 257.315 156.550,257.092 156.760,257.092 156.946 C 257.092 157.131,256.829 157.383,256.508 157.505 C 256.187 157.627,255.806 157.948,255.661 158.217 C 255.517 158.487,255.284 158.707,255.143 158.707 C 255.002 158.707,254.567 158.977,254.175 159.306 C 253.784 159.635,253.299 159.904,253.098 159.904 C 252.897 159.904,252.412 160.174,252.021 160.503 C 251.614 160.846,251.008 161.101,250.602 161.101 C 250.210 161.101,249.837 161.253,249.764 161.443 C 249.596 161.881,248.404 162.298,247.320 162.298 C 246.856 162.298,246.279 162.477,246.038 162.695 C 245.340 163.327,241.247 163.525,230.500 163.446 L 220.784 163.375 219.731 162.657 C 217.752 161.307,217.153 160.545,216.972 159.145 C 216.881 158.443,216.661 157.657,216.483 157.397 C 216.298 157.129,216.157 156.302,216.156 155.482 C 216.153 152.540,215.878 150.752,215.410 150.630 C 215.172 150.568,214.915 150.323,214.840 150.085 C 214.765 149.848,214.438 149.480,214.114 149.268 C 213.545 148.895,213.525 148.788,213.525 146.154 C 213.525 143.028,213.439 142.669,212.691 142.669 C 212.124 142.669,211.849 143.371,211.849 144.824 C 211.849 145.746,211.288 146.169,210.526 145.821 C 210.200 145.673,209.934 145.455,209.934 145.336 C 209.934 145.218,209.638 144.996,209.276 144.842 C 208.914 144.689,207.917 143.868,207.062 143.019 C 205.524 141.492,205.490 141.474,204.182 141.473 C 202.700 141.472,203.204 141.097,197.879 146.167 C 196.580 147.403,195.418 148.414,195.297 148.414 C 195.012 148.414,193.417 150.007,193.417 150.292 C 193.417 150.412,193.202 150.658,192.938 150.839 C 192.318 151.264,191.981 153.078,191.981 155.988 C 191.981 157.773,191.883 158.413,191.502 159.124 C 191.239 159.615,191.023 160.144,191.023 160.299 C 191.023 160.661,189.441 162.298,189.091 162.298 C 188.945 162.298,188.630 162.540,188.390 162.837 L 187.953 163.375 175.864 163.375 L 163.774 163.375 163.046 162.837 C 162.531 162.456,161.980 162.297,161.171 162.294 C 160.540 162.293,159.755 162.135,159.425 161.945 C 158.436 161.373,157.901 161.141,157.255 161.005 C 156.918 160.933,156.389 160.656,156.082 160.390 C 155.774 160.123,155.376 159.904,155.197 159.904 C 155.019 159.904,154.688 159.689,154.463 159.425 C 154.237 159.162,153.917 158.947,153.751 158.947 C 152.873 158.947,146.499 152.257,146.499 151.335 C 146.499 151.141,146.230 150.733,145.901 150.428 C 145.572 150.123,145.302 149.667,145.302 149.415 C 145.302 149.163,145.076 148.670,144.800 148.318 C 144.523 147.967,144.236 147.225,144.163 146.670 C 144.089 146.115,143.803 145.356,143.528 144.983 C 142.736 143.909,142.758 131.723,143.555 130.171 C 143.846 129.606,144.146 128.742,144.224 128.249 C 144.309 127.710,144.551 127.255,144.834 127.104 C 145.140 126.940,145.302 126.603,145.302 126.132 C 145.302 125.670,145.517 125.212,145.901 124.856 C 146.230 124.551,146.499 124.170,146.499 124.009 C 146.499 123.462,148.051 121.516,150.090 119.508 C 152.889 116.750,153.003 116.653,153.680 116.449 C 154.010 116.350,154.414 116.077,154.578 115.843 C 154.743 115.609,155.193 115.349,155.579 115.264 C 155.965 115.179,156.404 114.961,156.556 114.778 C 156.707 114.596,157.226 114.320,157.709 114.165 C 158.192 114.010,158.775 113.720,159.004 113.519 C 159.241 113.313,160.138 113.090,161.082 113.003 C 162.105 112.910,162.911 112.700,163.179 112.458 C 163.847 111.854,163.089 111.864,204.918 111.887 C 243.078 111.908,244.327 111.923,244.994 112.360 " stroke="none" fill="#fcfcfc" fill-rule="evenodd"></path><path id="path2" d="M200.958 86.463 C 199.904 86.723,198.612 87.132,198.085 87.371 C 197.558 87.609,196.750 87.881,196.290 87.975 C 195.829 88.069,195.000 88.348,194.448 88.597 C 193.895 88.845,193.249 89.049,193.011 89.051 C 192.774 89.052,192.041 89.318,191.382 89.642 C 190.724 89.965,190.024 90.238,189.826 90.248 C 189.629 90.258,189.037 90.432,188.510 90.635 C 187.983 90.838,186.906 91.202,186.116 91.445 C 185.326 91.689,183.764 92.226,182.645 92.639 C 181.526 93.053,179.938 93.585,179.116 93.822 C 178.295 94.059,177.487 94.365,177.321 94.502 C 177.155 94.639,176.589 94.826,176.062 94.919 C 175.536 95.011,174.872 95.232,174.588 95.410 C 174.304 95.588,173.550 95.858,172.913 96.011 C 172.275 96.164,171.514 96.438,171.222 96.620 C 170.929 96.801,170.157 97.064,169.506 97.204 C 168.855 97.343,167.914 97.666,167.414 97.921 C 166.914 98.176,166.298 98.384,166.044 98.384 C 165.790 98.384,165.139 98.590,164.598 98.841 C 163.555 99.325,161.360 100.075,159.186 100.689 C 158.462 100.894,157.762 101.149,157.630 101.256 C 157.499 101.363,156.744 101.636,155.955 101.861 C 155.165 102.087,154.411 102.356,154.279 102.459 C 154.147 102.562,153.555 102.770,152.962 102.920 C 152.370 103.071,151.380 103.405,150.764 103.662 C 150.147 103.919,149.446 104.133,149.208 104.137 C 148.969 104.141,148.235 104.409,147.576 104.733 C 146.918 105.057,146.180 105.323,145.937 105.324 C 144.486 105.331,143.251 106.557,143.510 107.734 L 143.665 108.438 204.082 108.438 L 264.500 108.438 264.895 107.674 C 265.415 106.668,264.511 105.759,262.578 105.344 C 261.882 105.195,261.170 104.955,260.996 104.810 C 260.821 104.664,260.006 104.353,259.184 104.118 C 258.362 103.883,257.151 103.505,256.493 103.278 C 253.667 102.304,251.875 101.656,250.868 101.243 C 250.275 101.000,249.414 100.727,248.953 100.637 C 248.492 100.548,247.684 100.288,247.157 100.060 C 246.000 99.560,244.198 98.931,242.698 98.503 C 242.088 98.329,241.276 98.025,240.894 97.827 C 240.512 97.630,239.772 97.390,239.250 97.295 C 238.728 97.200,237.923 96.935,237.463 96.705 C 237.002 96.476,236.248 96.208,235.787 96.110 C 235.326 96.012,234.567 95.739,234.100 95.502 C 233.633 95.266,232.825 94.994,232.305 94.898 C 231.784 94.802,230.983 94.524,230.524 94.280 C 230.065 94.036,229.473 93.835,229.208 93.834 C 228.942 93.833,228.187 93.567,227.528 93.243 C 226.870 92.919,226.140 92.651,225.905 92.647 C 225.670 92.643,225.078 92.464,224.588 92.250 C 224.099 92.035,223.052 91.664,222.262 91.424 C 219.952 90.724,217.300 89.779,217.018 89.556 C 216.874 89.443,216.326 89.275,215.799 89.184 C 215.272 89.093,214.464 88.826,214.004 88.591 C 213.543 88.356,212.735 88.085,212.208 87.987 C 211.682 87.890,210.874 87.618,210.413 87.382 C 207.901 86.096,203.982 85.715,200.958 86.463 M207.471 86.923 C 208.496 87.071,209.659 87.385,210.054 87.621 C 210.449 87.858,211.203 88.130,211.730 88.227 C 212.256 88.323,212.904 88.544,213.169 88.716 C 213.434 88.888,214.206 89.148,214.884 89.294 C 215.563 89.439,216.526 89.767,217.026 90.021 C 217.526 90.276,218.102 90.485,218.307 90.485 C 218.511 90.485,219.077 90.698,219.564 90.959 C 220.051 91.220,220.911 91.503,221.475 91.588 C 222.040 91.673,222.830 91.940,223.231 92.180 C 223.632 92.421,224.436 92.694,225.019 92.787 C 225.601 92.880,226.404 93.144,226.803 93.373 C 227.202 93.602,227.905 93.865,228.366 93.956 C 228.827 94.048,229.443 94.274,229.736 94.459 C 230.028 94.644,230.800 94.910,231.451 95.049 C 232.102 95.189,233.044 95.512,233.543 95.767 C 234.043 96.021,234.672 96.233,234.940 96.237 C 235.208 96.241,235.966 96.510,236.625 96.834 C 237.283 97.157,238.093 97.423,238.424 97.425 C 238.755 97.426,239.413 97.635,239.887 97.889 C 240.361 98.143,241.168 98.425,241.679 98.516 C 242.191 98.607,242.932 98.875,243.327 99.111 C 243.722 99.348,244.476 99.617,245.003 99.710 C 245.530 99.803,246.284 100.070,246.679 100.303 C 247.074 100.536,247.882 100.803,248.474 100.895 C 249.066 100.988,249.784 101.211,250.068 101.390 C 250.352 101.570,251.106 101.848,251.743 102.008 C 252.381 102.167,253.226 102.494,253.621 102.734 C 254.016 102.974,254.610 103.170,254.941 103.171 C 255.272 103.171,255.918 103.373,256.377 103.618 C 256.836 103.864,257.750 104.182,258.408 104.326 C 259.066 104.469,260.032 104.807,260.553 105.076 C 261.075 105.345,261.700 105.566,261.942 105.566 C 263.238 105.566,264.810 106.851,264.458 107.623 L 264.196 108.199 204.057 108.199 L 143.918 108.199 143.759 107.566 C 143.672 107.217,143.687 106.851,143.793 106.752 C 144.231 106.343,145.928 105.566,146.385 105.566 C 146.655 105.566,147.303 105.345,147.825 105.076 C 148.346 104.807,149.312 104.473,149.970 104.334 C 150.628 104.195,151.406 103.930,151.699 103.745 C 151.991 103.560,152.799 103.290,153.494 103.144 C 154.189 102.998,154.919 102.738,155.117 102.567 C 155.314 102.395,155.907 102.180,156.433 102.088 C 156.960 101.997,157.727 101.730,158.138 101.496 C 158.549 101.262,159.357 100.993,159.933 100.899 C 160.510 100.804,161.305 100.536,161.700 100.303 C 162.095 100.070,162.849 99.803,163.375 99.710 C 163.902 99.617,164.669 99.334,165.079 99.082 C 165.490 98.830,166.082 98.623,166.396 98.621 C 166.709 98.620,167.504 98.354,168.163 98.030 C 168.821 97.707,169.633 97.438,169.967 97.434 C 170.302 97.430,170.970 97.225,171.453 96.979 C 171.936 96.733,172.831 96.405,173.441 96.252 C 174.051 96.098,174.783 95.827,175.067 95.649 C 175.351 95.472,176.176 95.190,176.900 95.024 C 177.624 94.857,178.432 94.588,178.695 94.425 C 178.959 94.262,179.578 94.058,180.071 93.972 C 180.565 93.885,181.534 93.551,182.226 93.229 C 182.917 92.907,183.676 92.643,183.911 92.641 C 184.147 92.640,184.739 92.438,185.228 92.193 C 185.716 91.947,186.547 91.670,187.074 91.577 C 187.600 91.483,188.270 91.253,188.563 91.064 C 188.855 90.876,189.629 90.607,190.283 90.467 C 190.936 90.327,191.594 90.064,191.745 89.882 C 191.896 89.700,192.523 89.480,193.137 89.394 C 193.752 89.307,194.611 89.033,195.045 88.784 C 195.480 88.536,196.288 88.265,196.840 88.183 C 197.393 88.101,198.115 87.862,198.444 87.651 C 199.801 86.782,204.090 86.436,207.471 86.923 M163.974 112.994 C 162.986 113.242,161.943 113.449,161.656 113.455 C 161.041 113.467,158.133 114.617,157.271 115.190 C 156.942 115.408,156.384 115.658,156.032 115.744 C 155.680 115.831,155.205 116.108,154.978 116.359 C 154.750 116.611,154.465 116.816,154.343 116.816 C 154.005 116.816,151.529 118.787,150.394 119.960 C 148.680 121.730,146.213 125.143,145.906 126.168 C 145.810 126.488,145.527 127.107,145.278 127.542 C 145.028 127.978,144.700 128.839,144.549 129.457 C 144.398 130.075,144.102 130.904,143.891 131.299 C 143.213 132.566,143.333 142.628,144.045 144.269 C 144.342 144.952,144.585 145.706,144.586 145.945 C 144.587 146.184,144.853 146.918,145.177 147.576 C 145.501 148.235,145.769 148.869,145.773 148.986 C 145.849 151.126,152.656 157.888,156.792 159.930 C 160.103 161.565,160.408 161.658,165.290 162.528 C 165.949 162.646,171.028 162.750,176.577 162.759 L 186.667 162.777 187.891 162.210 C 190.352 161.070,190.848 160.123,190.981 156.318 C 191.045 154.484,191.203 153.144,191.390 152.847 C 191.557 152.581,191.765 152.025,191.851 151.612 C 192.052 150.646,194.556 148.080,200.138 143.119 C 203.798 139.866,204.887 139.834,208.018 142.891 C 208.972 143.822,209.839 144.584,209.946 144.584 C 210.052 144.584,210.308 144.753,210.514 144.958 C 211.023 145.468,211.370 145.190,211.374 144.271 C 211.381 142.496,212.134 141.807,213.423 142.394 C 213.988 142.652,214.004 142.732,214.004 145.384 C 214.004 148.150,214.423 149.313,215.704 150.105 C 216.319 150.485,216.952 152.961,217.128 155.675 C 217.410 160.001,217.942 161.045,220.448 162.195 L 221.783 162.808 232.675 162.716 C 244.124 162.620,246.282 162.422,248.833 161.234 C 250.728 160.351,253.248 159.080,254.219 158.517 C 255.233 157.928,259.592 153.728,260.500 152.464 C 261.806 150.645,263.555 147.370,263.555 146.740 C 263.555 146.593,263.762 146.019,264.015 145.464 C 264.267 144.908,264.602 143.325,264.757 141.946 C 264.913 140.566,265.137 139.190,265.255 138.888 C 265.530 138.184,265.530 137.100,265.255 136.397 C 265.137 136.094,264.915 134.716,264.762 133.333 C 264.593 131.803,264.302 130.466,264.020 129.915 C 263.764 129.417,263.552 128.825,263.550 128.598 C 263.544 128.178,262.366 125.819,261.538 124.572 C 261.285 124.190,260.722 123.325,260.287 122.649 C 259.388 121.251,255.487 117.480,254.223 116.785 C 250.229 114.593,247.853 113.585,246.080 113.330 C 245.488 113.245,244.415 113.025,243.696 112.842 C 241.367 112.246,166.379 112.390,163.974 112.994 M245.278 113.568 C 246.483 113.751,247.722 114.062,248.031 114.258 C 248.340 114.454,248.971 114.693,249.431 114.789 C 249.892 114.885,250.517 115.158,250.819 115.395 C 251.122 115.632,251.687 115.896,252.076 115.981 C 252.465 116.066,252.783 116.238,252.783 116.362 C 252.783 116.486,253.079 116.715,253.441 116.872 C 254.098 117.156,255.339 118.082,256.262 118.977 C 256.530 119.237,256.873 119.449,257.024 119.449 C 257.175 119.449,257.365 119.659,257.447 119.916 C 257.528 120.173,257.799 120.447,258.049 120.527 C 258.299 120.606,258.570 120.881,258.651 121.138 C 258.733 121.394,259.008 121.716,259.262 121.852 C 259.517 121.988,259.725 122.205,259.725 122.333 C 259.725 122.462,260.183 123.221,260.742 124.022 C 261.302 124.822,261.823 125.601,261.901 125.754 C 262.625 127.171,263.134 128.397,263.458 129.503 C 263.670 130.227,263.947 130.948,264.075 131.104 C 264.760 131.945,264.759 143.346,264.073 144.180 C 263.945 144.336,263.655 145.111,263.430 145.901 C 263.205 146.691,262.885 147.499,262.719 147.696 C 262.554 147.893,262.292 148.450,262.137 148.934 C 261.981 149.417,261.699 149.942,261.508 150.100 C 261.317 150.258,261.161 150.532,261.161 150.709 C 261.161 150.886,260.838 151.399,260.443 151.849 C 260.048 152.298,259.725 152.743,259.725 152.836 C 259.725 153.102,255.801 156.845,254.825 157.510 C 254.342 157.840,253.658 158.337,253.305 158.615 C 252.952 158.893,252.394 159.204,252.065 159.306 C 251.735 159.408,251.225 159.680,250.930 159.910 C 250.635 160.140,249.988 160.404,249.493 160.496 C 248.999 160.588,248.408 160.830,248.180 161.034 C 247.919 161.268,246.672 161.547,244.788 161.792 C 243.150 162.004,241.730 162.259,241.631 162.358 C 241.271 162.719,222.472 162.569,221.612 162.198 C 221.180 162.012,220.488 161.734,220.076 161.582 C 218.378 160.956,217.730 159.464,217.581 155.835 C 217.470 153.115,217.365 152.452,216.923 151.649 C 216.634 151.125,216.394 150.586,216.390 150.452 C 216.386 150.319,216.004 149.833,215.542 149.373 C 214.560 148.395,214.546 148.343,214.397 145.074 C 214.270 142.292,214.080 141.951,212.658 141.951 C 211.654 141.951,211.131 142.496,211.131 143.543 C 211.131 144.820,210.063 144.466,208.182 142.566 C 206.394 140.761,204.315 139.689,203.639 140.224 C 203.481 140.350,202.974 140.574,202.513 140.722 C 201.958 140.900,200.513 142.123,198.231 144.344 C 196.336 146.187,194.735 147.696,194.672 147.696 C 194.233 147.696,191.710 150.674,191.584 151.341 C 191.503 151.772,191.263 152.324,191.050 152.567 C 190.750 152.912,190.638 153.741,190.545 156.287 C 190.326 162.280,189.766 162.532,176.688 162.535 C 171.767 162.536,167.350 162.436,166.874 162.313 C 166.398 162.190,165.039 161.966,163.854 161.817 C 162.669 161.668,161.024 161.284,160.199 160.964 C 159.373 160.645,158.553 160.383,158.376 160.383 C 158.199 160.383,157.788 160.174,157.464 159.919 C 157.140 159.664,156.594 159.385,156.252 159.299 C 155.910 159.213,155.444 158.937,155.217 158.686 C 154.989 158.434,154.713 158.229,154.603 158.229 C 154.002 158.229,150.174 154.725,148.891 152.999 C 148.563 152.558,148.067 151.912,147.789 151.562 C 147.510 151.213,147.211 150.699,147.124 150.421 C 147.037 150.142,146.753 149.721,146.493 149.486 C 146.233 149.251,146.020 148.875,146.020 148.652 C 146.020 148.429,145.769 147.772,145.461 147.193 C 145.154 146.614,144.828 145.671,144.736 145.098 C 144.645 144.524,144.385 143.716,144.158 143.302 C 143.462 142.031,143.555 133.466,144.285 131.589 C 144.581 130.827,144.823 129.986,144.823 129.721 C 144.823 129.456,145.039 128.841,145.302 128.354 C 145.565 127.867,145.945 127.092,146.148 126.631 C 146.759 125.239,148.104 123.163,149.072 122.116 C 149.369 121.796,149.617 121.415,149.625 121.270 C 149.642 120.933,154.027 117.239,154.716 116.982 C 155.000 116.876,155.317 116.638,155.421 116.453 C 155.524 116.268,155.976 116.049,156.424 115.964 C 156.873 115.880,157.423 115.609,157.647 115.361 C 157.872 115.113,158.444 114.840,158.920 114.754 C 159.395 114.668,160.108 114.429,160.503 114.222 C 162.230 113.319,163.924 113.282,204.069 113.258 C 236.303 113.238,243.469 113.292,245.278 113.568 " stroke="none" fill="#84849c" fill-rule="evenodd"></path><path id="path3" d="M201.317 86.186 C 199.678 86.733,200.171 86.792,201.981 86.266 C 203.249 85.898,205.078 85.902,206.822 86.278 C 207.151 86.349,206.990 86.256,206.463 86.071 C 205.148 85.608,202.895 85.659,201.317 86.186 M197.832 87.246 C 197.576 87.439,197.475 87.597,197.606 87.597 C 197.738 87.597,198.055 87.439,198.310 87.246 C 198.566 87.052,198.667 86.894,198.536 86.894 C 198.404 86.894,198.087 87.052,197.832 87.246 M194.667 88.249 C 194.236 88.462,193.937 88.690,194.003 88.757 C 194.069 88.823,194.261 88.764,194.429 88.625 C 194.596 88.487,195.111 88.266,195.572 88.134 C 196.047 87.998,196.202 87.888,195.931 87.879 C 195.667 87.870,195.099 88.037,194.667 88.249 M191.182 89.436 C 190.157 89.991,190.558 90.070,191.629 89.524 C 192.141 89.262,192.403 89.053,192.211 89.058 C 192.019 89.063,191.555 89.233,191.182 89.436 M216.151 89.224 C 216.477 89.285,216.958 89.486,217.222 89.671 C 217.485 89.855,217.811 90.005,217.947 90.004 C 218.082 90.004,217.870 89.789,217.475 89.527 C 217.080 89.266,216.487 89.066,216.158 89.083 L 215.560 89.114 216.151 89.224 M187.798 90.619 C 186.943 91.065,186.644 91.355,187.313 91.089 C 187.576 90.984,188.169 90.757,188.630 90.583 C 189.171 90.378,189.298 90.263,188.989 90.257 C 188.725 90.252,188.190 90.415,187.798 90.619 M220.194 90.729 C 220.768 90.990,221.306 91.198,221.391 91.193 C 221.693 91.173,219.861 90.265,219.509 90.261 C 219.312 90.258,219.620 90.469,220.194 90.729 M184.081 91.921 C 182.983 92.522,183.274 92.525,184.594 91.926 C 185.168 91.666,185.476 91.455,185.278 91.458 C 185.081 91.460,184.542 91.669,184.081 91.921 M223.100 91.613 C 223.297 91.686,223.674 91.845,223.938 91.967 C 224.409 92.183,224.409 92.181,223.952 91.815 C 223.696 91.610,223.319 91.451,223.114 91.461 C 222.792 91.477,222.790 91.498,223.100 91.613 M181.075 93.011 C 180.618 93.378,180.618 93.380,181.089 93.163 C 181.352 93.042,181.730 92.883,181.927 92.810 C 182.237 92.695,182.235 92.674,181.913 92.658 C 181.708 92.648,181.331 92.807,181.075 93.011 M227.232 93.118 C 228.387 93.737,228.718 93.737,227.702 93.117 C 227.271 92.854,226.788 92.639,226.629 92.639 C 226.469 92.639,226.741 92.855,227.232 93.118 M177.143 94.329 C 176.045 94.941,176.532 94.930,177.738 94.315 C 178.254 94.051,178.520 93.842,178.327 93.850 C 178.135 93.857,177.602 94.073,177.143 94.329 M230.583 94.315 C 231.074 94.578,231.607 94.794,231.767 94.794 C 231.927 94.794,231.636 94.578,231.119 94.315 C 230.603 94.051,230.070 93.836,229.935 93.836 C 229.800 93.836,230.092 94.051,230.583 94.315 M174.425 95.181 C 174.052 95.383,173.807 95.610,173.881 95.684 C 173.955 95.758,174.181 95.682,174.382 95.515 C 174.584 95.348,175.098 95.128,175.525 95.027 C 176.177 94.872,176.205 94.840,175.703 94.828 C 175.374 94.819,174.799 94.978,174.425 95.181 M234.111 95.512 C 234.572 95.764,235.107 95.975,235.299 95.980 C 235.491 95.986,235.226 95.775,234.710 95.512 C 233.512 94.901,232.996 94.901,234.111 95.512 M171.268 96.315 C 171.008 96.493,170.473 96.754,170.078 96.894 C 169.683 97.035,169.521 97.157,169.719 97.167 C 169.916 97.177,170.401 97.011,170.796 96.799 C 171.191 96.587,171.783 96.328,172.113 96.223 C 172.615 96.062,172.633 96.028,172.226 96.011 C 171.959 96.000,171.528 96.136,171.268 96.315 M236.267 96.214 C 236.597 96.314,237.211 96.575,237.632 96.792 C 238.052 97.009,238.536 97.186,238.707 97.185 C 238.879 97.184,238.442 96.914,237.738 96.587 C 237.034 96.259,236.280 96.000,236.062 96.011 C 235.840 96.023,235.930 96.111,236.267 96.214 M167.664 97.528 C 167.397 97.715,166.807 97.974,166.354 98.104 C 165.901 98.235,165.722 98.351,165.956 98.363 C 166.191 98.374,166.783 98.202,167.273 97.978 C 167.762 97.755,168.378 97.497,168.642 97.404 C 169.117 97.236,169.117 97.235,168.635 97.211 C 168.368 97.198,167.931 97.340,167.664 97.528 M239.858 97.411 C 240.188 97.511,240.802 97.771,241.222 97.989 C 241.643 98.206,242.181 98.375,242.418 98.364 C 242.711 98.350,242.657 98.285,242.249 98.161 C 241.919 98.060,241.305 97.800,240.884 97.583 C 240.464 97.365,239.926 97.197,239.689 97.208 C 239.396 97.222,239.450 97.287,239.858 97.411 M163.977 98.877 C 163.519 99.132,163.277 99.342,163.440 99.342 C 163.603 99.342,164.138 99.126,164.629 98.863 C 165.121 98.600,165.363 98.390,165.167 98.398 C 164.971 98.405,164.436 98.621,163.977 98.877 M243.892 98.868 C 244.466 99.129,245.005 99.337,245.089 99.332 C 245.391 99.312,243.559 98.404,243.208 98.399 C 243.010 98.397,243.318 98.608,243.892 98.868 M160.862 99.963 C 159.403 100.629,159.804 100.578,161.819 99.840 C 162.543 99.574,162.920 99.358,162.657 99.359 C 162.394 99.360,161.586 99.632,160.862 99.963 M247.277 100.060 C 247.738 100.312,248.276 100.521,248.474 100.523 C 248.671 100.526,248.363 100.315,247.790 100.055 C 246.469 99.456,246.179 99.459,247.277 100.060 M157.773 100.911 C 157.326 101.105,157.027 101.332,157.109 101.414 C 157.192 101.497,157.397 101.451,157.565 101.312 C 157.732 101.174,158.247 100.953,158.707 100.821 C 159.170 100.689,159.331 100.576,159.066 100.570 C 158.803 100.563,158.221 100.716,157.773 100.911 M155.370 101.776 C 154.514 102.022,153.384 102.693,153.827 102.693 C 153.966 102.693,154.158 102.612,154.253 102.513 C 154.349 102.415,154.986 102.156,155.670 101.938 C 156.998 101.516,156.748 101.380,155.370 101.776 M253.477 102.224 C 254.056 102.487,254.571 102.660,254.622 102.609 C 254.751 102.480,253.141 101.734,252.747 101.741 C 252.569 101.744,252.898 101.961,253.477 102.224 M150.934 103.306 C 150.079 103.752,149.780 104.042,150.449 103.776 C 150.712 103.671,151.305 103.444,151.765 103.270 C 152.307 103.065,152.434 102.950,152.124 102.944 C 151.861 102.939,151.325 103.102,150.934 103.306 M257.058 103.416 C 257.632 103.677,258.170 103.885,258.255 103.880 C 258.557 103.860,256.725 102.952,256.373 102.948 C 256.176 102.945,256.484 103.156,257.058 103.416 M147.337 104.608 C 146.408 105.223,146.725 105.223,147.873 104.608 C 148.364 104.345,148.606 104.130,148.411 104.131 C 148.215 104.132,147.732 104.346,147.337 104.608 M260.563 104.608 C 261.759 105.218,261.962 105.218,261.041 104.608 C 260.646 104.346,260.166 104.132,259.973 104.131 C 259.781 104.130,260.046 104.345,260.563 104.608 M144.018 105.822 C 143.671 106.095,143.387 106.439,143.387 106.586 C 143.387 106.733,143.522 106.676,143.686 106.459 C 143.851 106.242,144.309 105.899,144.704 105.697 C 145.101 105.494,145.249 105.328,145.035 105.328 C 144.823 105.327,144.365 105.549,144.018 105.822 M263.674 105.662 C 264.978 106.237,265.331 106.832,264.883 107.698 L 264.500 108.437 204.183 108.498 L 143.866 108.559 204.236 108.558 L 264.605 108.558 265.080 107.745 L 265.554 106.933 264.678 106.129 C 264.196 105.688,263.611 105.330,263.379 105.336 C 263.114 105.341,263.224 105.463,263.674 105.662 M165.290 112.423 C 164.063 112.679,162.772 113.061,162.855 113.144 C 162.906 113.195,163.636 113.074,164.478 112.875 C 166.809 112.326,241.685 112.324,243.795 112.874 C 244.568 113.075,245.307 113.204,245.437 113.161 C 247.669 112.417,168.806 111.691,165.290 112.423 M161.400 113.391 C 161.631 113.451,162.008 113.451,162.238 113.391 C 162.469 113.330,162.280 113.281,161.819 113.281 C 161.358 113.281,161.170 113.330,161.400 113.391 M159.425 113.944 C 158.327 114.545,158.618 114.548,159.938 113.949 C 160.512 113.689,160.820 113.478,160.622 113.480 C 160.425 113.483,159.886 113.691,159.425 113.944 M247.756 113.636 C 247.953 113.709,248.330 113.868,248.594 113.989 C 249.065 114.206,249.065 114.204,248.608 113.837 C 248.352 113.633,247.975 113.473,247.770 113.484 C 247.448 113.500,247.446 113.521,247.756 113.636 M157.244 114.868 C 156.930 115.114,156.403 115.398,156.074 115.500 C 155.441 115.696,153.968 116.816,154.343 116.816 C 154.464 116.816,154.759 116.601,154.997 116.338 C 155.235 116.074,155.525 115.859,155.640 115.859 C 155.879 115.859,157.100 115.297,157.989 114.779 C 158.394 114.543,158.463 114.428,158.201 114.426 C 157.988 114.424,157.558 114.623,157.244 114.868 M253.150 116.111 C 253.229 116.239,253.700 116.551,254.196 116.804 C 254.691 117.057,256.219 118.319,257.590 119.608 C 258.962 120.898,259.545 121.362,258.887 120.641 C 257.030 118.607,252.464 115.001,253.150 116.111 M152.197 118.069 C 149.887 119.986,149.373 120.538,148.016 122.561 C 147.795 122.890,147.952 122.783,148.364 122.322 C 148.776 121.861,149.117 121.414,149.123 121.328 C 149.139 121.060,151.348 118.955,152.663 117.955 C 153.831 117.066,154.083 116.816,153.813 116.816 C 153.754 116.816,153.026 117.380,152.197 118.069 M260.285 122.561 C 260.503 122.890,260.889 123.544,261.143 124.014 C 261.657 124.965,262.487 125.810,262.218 125.109 C 262.135 124.893,261.984 124.716,261.883 124.716 C 261.781 124.716,261.565 124.396,261.403 124.004 C 261.241 123.613,260.834 122.994,260.499 122.628 C 259.955 122.034,259.932 122.027,260.285 122.561 M146.196 125.135 C 145.988 125.365,145.755 125.877,145.678 126.272 L 145.539 126.990 145.811 126.272 C 145.960 125.877,146.247 125.365,146.448 125.135 C 146.648 124.904,146.759 124.716,146.693 124.716 C 146.627 124.716,146.403 124.904,146.196 125.135 M262.359 125.744 C 262.358 125.849,262.627 126.440,262.956 127.059 C 263.285 127.677,263.551 128.022,263.547 127.826 C 263.540 127.461,262.361 125.397,262.359 125.744 M144.926 127.700 C 144.713 128.025,144.576 128.392,144.621 128.515 C 144.667 128.638,144.890 128.372,145.118 127.924 C 145.599 126.976,145.487 126.844,144.926 127.700 M263.575 128.672 C 263.564 128.939,263.722 129.396,263.926 129.687 C 264.130 129.979,264.388 130.676,264.498 131.237 C 264.667 132.090,264.703 132.139,264.724 131.538 C 264.738 131.143,264.575 130.497,264.363 130.102 C 264.152 129.707,263.892 129.114,263.787 128.785 C 263.626 128.282,263.593 128.264,263.575 128.672 M143.778 131.027 C 143.563 131.480,143.401 132.210,143.417 132.651 C 143.447 133.440,143.450 133.437,143.610 132.496 C 143.699 131.969,143.910 131.286,144.078 130.979 C 144.246 130.671,144.335 130.371,144.276 130.312 C 144.216 130.253,143.992 130.575,143.778 131.027 M265.143 135.248 C 265.205 135.972,265.256 137.050,265.256 137.642 C 265.256 138.235,265.205 139.312,265.143 140.036 L 265.031 141.352 265.269 140.036 C 265.399 139.312,265.506 138.235,265.506 137.642 C 265.506 137.050,265.399 135.972,265.269 135.248 L 265.031 133.932 265.143 135.248 M143.243 137.642 C 143.243 139.551,143.280 140.332,143.326 139.378 C 143.371 138.423,143.371 136.861,143.326 135.907 C 143.280 134.952,143.243 135.733,143.243 137.642 M203.710 140.914 C 205.763 141.120,206.091 141.263,207.336 142.498 C 208.028 143.184,208.438 143.534,208.247 143.273 C 206.866 141.394,205.733 140.733,203.994 140.792 C 203.075 140.824,203.024 140.846,203.710 140.914 M200.958 142.349 C 200.299 142.957,198.737 144.403,197.487 145.562 C 196.236 146.721,194.943 147.897,194.614 148.176 L 194.016 148.682 194.726 148.249 C 195.117 148.011,196.355 146.942,197.479 145.874 C 198.602 144.805,200.168 143.326,200.958 142.587 C 201.747 141.847,202.340 141.243,202.274 141.243 C 202.208 141.244,201.616 141.741,200.958 142.349 M143.417 142.633 C 143.389 143.397,144.050 145.198,144.276 144.972 C 144.335 144.913,144.246 144.613,144.078 144.305 C 143.910 143.998,143.699 143.315,143.610 142.789 C 143.450 141.847,143.447 141.844,143.417 142.633 M213.763 145.134 L 213.881 147.816 213.951 145.323 C 213.990 143.952,213.936 142.745,213.833 142.641 C 213.729 142.537,213.698 143.659,213.763 145.134 M211.431 143.986 C 211.433 144.512,211.482 144.700,211.540 144.402 C 211.597 144.104,211.595 143.673,211.535 143.444 C 211.475 143.215,211.428 143.459,211.431 143.986 M264.540 143.746 C 264.516 144.141,264.288 144.895,264.034 145.422 C 263.779 145.949,263.576 146.541,263.582 146.738 C 263.591 147.058,263.607 147.058,263.724 146.738 C 263.797 146.541,264.064 145.914,264.318 145.344 C 264.572 144.775,264.736 144.021,264.682 143.668 C 264.586 143.043,264.583 143.044,264.540 143.746 M210.350 145.101 C 210.783 145.539,210.944 145.584,211.188 145.339 C 211.432 145.093,211.409 145.065,211.071 145.194 C 210.841 145.282,210.652 145.246,210.652 145.114 C 210.652 144.982,210.464 144.804,210.233 144.717 C 209.910 144.596,209.937 144.683,210.350 145.101 M144.586 146.748 C 144.587 146.940,144.801 147.421,145.063 147.816 C 145.673 148.736,145.673 148.533,145.063 147.337 C 144.800 146.820,144.585 146.555,144.586 146.748 M262.705 148.676 C 262.495 149.083,262.365 149.459,262.417 149.511 C 262.469 149.563,262.691 149.229,262.910 148.770 C 263.402 147.738,263.231 147.659,262.705 148.676 M214.011 148.434 C 214.015 148.621,214.311 148.980,214.669 149.233 L 215.320 149.692 214.722 148.993 C 214.393 148.609,214.096 148.250,214.063 148.195 C 214.031 148.140,214.007 148.248,214.011 148.434 M192.739 150.076 C 192.322 150.595,191.981 151.088,191.981 151.171 C 191.981 151.308,192.479 150.736,193.392 149.551 C 194.046 148.702,193.472 149.164,192.739 150.076 M261.625 150.820 C 261.304 151.348,260.799 152.051,260.503 152.383 C 260.206 152.715,259.964 153.059,259.964 153.148 C 259.964 153.397,261.218 151.892,261.829 150.910 C 262.130 150.425,262.339 149.991,262.292 149.945 C 262.246 149.898,261.946 150.292,261.625 150.820 M146.738 150.977 C 146.738 151.774,152.169 157.586,153.548 158.265 C 153.819 158.398,153.662 158.202,153.202 157.829 C 150.963 156.019,148.656 153.554,147.277 151.498 C 146.981 151.056,146.738 150.822,146.738 150.977 M216.543 152.364 C 216.639 152.627,216.798 154.117,216.896 155.674 C 216.994 157.232,217.128 158.561,217.196 158.628 C 217.495 158.927,217.029 153.042,216.709 152.484 C 216.519 152.151,216.445 152.098,216.543 152.364 M191.317 153.023 C 191.171 153.319,191.012 154.907,190.965 156.553 C 190.917 158.199,190.953 159.276,191.046 158.947 C 191.139 158.618,191.226 157.291,191.239 155.999 C 191.252 154.706,191.379 153.431,191.521 153.165 C 191.664 152.900,191.736 152.637,191.681 152.583 C 191.627 152.529,191.463 152.726,191.317 153.023 M259.485 153.761 C 259.288 153.928,258.426 154.814,257.571 155.728 C 256.025 157.380,256.028 157.379,257.990 155.481 C 259.076 154.431,259.964 153.543,259.964 153.507 C 259.964 153.390,259.852 153.450,259.485 153.761 M255.401 157.648 C 255.084 158.030,254.769 158.220,251.586 159.945 C 250.597 160.480,250.105 160.844,250.490 160.755 C 250.874 160.666,251.454 160.384,251.779 160.129 C 252.103 159.874,252.460 159.665,252.571 159.665 C 252.876 159.665,255.271 158.093,255.635 157.654 C 255.810 157.444,255.899 157.271,255.834 157.271 C 255.768 157.271,255.573 157.441,255.401 157.648 M154.816 158.969 C 155.151 159.400,157.839 160.862,158.292 160.861 C 158.455 160.861,157.852 160.490,156.953 160.037 C 156.054 159.584,155.139 159.073,154.918 158.901 C 154.568 158.627,154.556 158.636,154.816 158.969 M217.374 159.495 C 217.363 159.730,217.801 160.376,218.345 160.931 L 219.336 161.939 218.502 160.862 C 218.044 160.269,217.606 159.623,217.531 159.425 C 217.422 159.143,217.389 159.158,217.374 159.495 M190.425 160.144 C 190.341 160.407,190.185 160.622,190.077 160.622 C 189.970 160.622,189.697 160.919,189.471 161.281 C 189.162 161.776,189.274 161.713,189.922 161.028 C 190.396 160.527,190.784 160.015,190.784 159.891 C 190.784 159.502,190.584 159.643,190.425 160.144 M248.819 161.213 C 248.563 161.407,248.139 161.581,247.876 161.600 C 247.507 161.627,247.488 161.660,247.789 161.740 C 248.005 161.797,248.544 161.624,248.986 161.354 C 249.429 161.084,249.676 160.863,249.537 160.863 C 249.398 160.862,249.075 161.020,248.819 161.213 M159.634 161.400 C 159.815 161.631,160.192 161.807,160.472 161.792 C 160.956 161.765,160.957 161.758,160.503 161.646 C 160.239 161.581,159.862 161.405,159.665 161.255 C 159.353 161.017,159.349 161.036,159.634 161.400 M187.672 162.298 C 186.752 162.801,167.979 163.000,165.290 162.535 C 164.632 162.421,163.770 162.263,163.375 162.184 C 162.900 162.090,163.022 162.186,163.734 162.469 C 164.715 162.858,165.821 162.896,176.062 162.896 L 187.313 162.896 188.151 162.359 C 189.170 161.705,188.833 161.662,187.672 162.298 M220.554 162.447 L 221.719 163.053 232.762 162.951 C 242.187 162.864,243.982 162.791,245.003 162.455 C 245.890 162.162,245.983 162.096,245.362 162.197 C 242.436 162.678,240.397 162.762,231.528 162.769 C 222.109 162.776,221.601 162.754,220.706 162.298 C 220.190 162.035,219.683 161.824,219.579 161.830 C 219.475 161.837,219.914 162.114,220.554 162.447 " stroke="none" fill="#8c8ca4" fill-rule="evenodd"></path><path id="path4" d="M201.676 85.437 C 201.281 85.546,200.634 85.810,200.239 86.024 C 199.844 86.238,199.220 86.413,198.852 86.414 C 198.484 86.415,197.677 86.685,197.059 87.014 C 196.440 87.343,195.598 87.612,195.187 87.612 C 194.776 87.612,194.173 87.822,193.848 88.078 C 193.522 88.333,192.696 88.617,192.011 88.708 C 191.259 88.808,190.651 89.035,190.476 89.283 C 190.296 89.536,189.684 89.758,188.869 89.865 C 188.145 89.960,187.337 90.231,187.074 90.469 C 186.802 90.714,186.036 90.963,185.305 91.044 C 184.596 91.123,183.816 91.369,183.572 91.590 C 183.327 91.811,182.573 92.080,181.895 92.187 C 181.161 92.303,180.479 92.579,180.208 92.869 C 179.885 93.217,179.452 93.357,178.704 93.357 C 177.934 93.357,177.466 93.517,176.944 93.956 C 176.446 94.374,175.947 94.554,175.282 94.554 C 174.699 94.554,174.100 94.736,173.733 95.025 C 173.404 95.284,172.662 95.564,172.085 95.647 C 171.508 95.731,170.766 95.986,170.437 96.214 C 170.108 96.443,169.300 96.702,168.642 96.791 C 167.983 96.879,167.175 97.149,166.846 97.390 C 166.517 97.631,165.782 97.890,165.212 97.966 C 164.642 98.042,163.984 98.278,163.749 98.491 C 163.514 98.703,162.699 98.979,161.939 99.102 C 161.178 99.226,160.371 99.495,160.144 99.701 C 159.917 99.906,159.109 100.175,158.348 100.299 C 157.588 100.423,156.784 100.689,156.561 100.890 C 156.339 101.091,155.633 101.354,154.992 101.473 C 154.351 101.593,153.708 101.852,153.565 102.049 C 153.417 102.250,152.693 102.483,151.904 102.581 C 151.105 102.681,150.330 102.931,150.096 103.166 C 149.871 103.391,149.164 103.647,148.525 103.734 C 147.880 103.823,147.138 104.105,146.856 104.370 C 146.577 104.633,146.021 104.847,145.622 104.847 C 143.340 104.847,141.946 107.236,143.387 108.677 C 143.863 109.154,144.183 109.156,204.010 109.153 C 269.308 109.149,264.921 109.247,265.780 107.775 L 266.236 106.994 265.253 106.011 C 264.449 105.206,264.064 105.006,263.134 104.908 C 262.483 104.839,261.779 104.588,261.484 104.319 C 261.200 104.062,260.500 103.788,259.928 103.712 C 259.355 103.636,258.618 103.385,258.288 103.155 C 257.959 102.924,257.156 102.662,256.503 102.573 C 255.850 102.483,255.054 102.204,254.735 101.953 C 254.416 101.702,253.819 101.493,253.409 101.489 C 252.999 101.485,252.232 101.216,251.706 100.891 C 251.153 100.551,250.382 100.301,249.883 100.300 C 249.364 100.300,248.758 100.095,248.369 99.789 C 248.005 99.503,247.228 99.227,246.601 99.161 C 245.985 99.096,245.260 98.842,244.989 98.596 C 244.719 98.350,243.965 98.080,243.314 97.995 C 242.663 97.911,241.915 97.648,241.652 97.411 C 241.387 97.172,240.584 96.905,239.856 96.814 C 239.132 96.723,238.324 96.459,238.061 96.228 C 237.798 95.997,237.063 95.734,236.428 95.643 C 235.793 95.552,235.083 95.287,234.850 95.053 C 234.609 94.812,233.881 94.565,233.159 94.480 C 232.462 94.397,231.689 94.146,231.441 93.923 C 231.194 93.699,230.392 93.434,229.659 93.335 C 228.890 93.230,228.207 92.992,228.046 92.772 C 227.893 92.562,227.201 92.300,226.509 92.191 C 225.817 92.081,225.055 91.815,224.816 91.599 C 224.577 91.382,223.851 91.140,223.202 91.060 C 222.553 90.980,221.749 90.724,221.414 90.490 C 221.079 90.256,220.330 89.984,219.749 89.886 C 219.168 89.788,218.418 89.515,218.083 89.280 C 217.749 89.045,216.936 88.779,216.278 88.690 C 215.619 88.600,214.891 88.357,214.658 88.149 C 214.426 87.941,213.628 87.688,212.887 87.587 C 212.145 87.487,211.473 87.306,211.394 87.185 C 211.127 86.777,210.209 86.415,209.440 86.415 C 209.019 86.415,208.298 86.183,207.838 85.899 C 206.919 85.331,203.094 85.044,201.676 85.437 M206.511 86.057 C 207.177 86.255,208.293 86.525,208.991 86.657 C 209.689 86.790,210.429 87.047,210.636 87.228 C 210.842 87.410,211.580 87.678,212.275 87.824 C 212.970 87.969,213.778 88.245,214.070 88.437 C 214.363 88.628,215.087 88.858,215.679 88.947 C 216.272 89.036,217.080 89.300,217.475 89.532 C 217.870 89.764,218.570 90.033,219.031 90.129 C 219.491 90.225,220.245 90.492,220.706 90.721 C 221.167 90.950,221.975 91.215,222.501 91.308 C 223.028 91.401,223.698 91.632,223.991 91.820 C 224.283 92.008,225.078 92.282,225.758 92.427 C 226.437 92.573,227.329 92.884,227.739 93.118 C 228.150 93.352,228.906 93.617,229.419 93.707 C 229.932 93.797,230.579 94.020,230.858 94.203 C 231.137 94.385,231.920 94.654,232.598 94.799 C 233.276 94.945,234.240 95.272,234.740 95.527 C 235.240 95.782,235.831 95.990,236.053 95.990 C 236.276 95.990,237.034 96.259,237.738 96.587 C 238.442 96.914,239.258 97.184,239.551 97.185 C 239.843 97.186,240.544 97.395,241.107 97.650 C 241.670 97.904,242.615 98.268,243.208 98.460 C 244.618 98.916,245.633 99.276,247.461 99.969 C 248.287 100.282,249.153 100.539,249.386 100.539 C 249.618 100.539,250.204 100.740,250.687 100.986 C 251.170 101.233,252.065 101.560,252.675 101.714 C 253.285 101.867,254.017 102.142,254.301 102.325 C 254.585 102.508,255.248 102.734,255.775 102.827 C 256.302 102.921,257.110 103.183,257.570 103.411 C 258.031 103.639,258.839 103.903,259.366 103.997 C 259.892 104.092,260.646 104.364,261.041 104.603 C 261.436 104.841,262.232 105.113,262.809 105.208 C 263.497 105.320,264.151 105.647,264.707 106.156 L 265.554 106.933 265.080 107.745 L 264.605 108.558 204.295 108.614 C 171.125 108.645,143.848 108.583,143.681 108.477 C 142.451 107.695,143.708 105.527,145.563 105.231 C 146.132 105.140,146.925 104.868,147.326 104.627 C 147.727 104.385,148.486 104.113,149.013 104.021 C 149.539 103.929,150.209 103.700,150.502 103.512 C 150.794 103.324,151.602 103.052,152.297 102.908 C 152.992 102.763,153.793 102.499,154.077 102.319 C 154.361 102.140,155.093 101.867,155.703 101.714 C 156.313 101.560,157.208 101.233,157.691 100.986 C 158.174 100.740,158.765 100.539,159.005 100.539 C 159.244 100.539,160.080 100.269,160.862 99.940 C 161.644 99.611,162.477 99.342,162.713 99.342 C 162.950 99.342,163.518 99.143,163.977 98.901 C 164.436 98.659,165.349 98.328,166.005 98.165 C 166.662 98.003,167.336 97.756,167.504 97.617 C 167.671 97.478,168.315 97.269,168.934 97.154 C 169.553 97.038,170.471 96.729,170.974 96.467 C 171.476 96.205,172.128 95.990,172.421 95.990 C 172.714 95.990,173.460 95.721,174.078 95.392 C 174.697 95.063,175.451 94.794,175.756 94.794 C 176.060 94.794,176.684 94.593,177.143 94.347 C 177.602 94.101,178.546 93.779,179.241 93.630 C 179.936 93.481,180.744 93.208,181.036 93.023 C 181.329 92.838,181.945 92.609,182.406 92.514 C 182.867 92.419,183.626 92.148,184.093 91.912 C 184.559 91.676,185.367 91.407,185.888 91.316 C 186.408 91.224,187.074 90.999,187.366 90.816 C 187.659 90.633,188.454 90.363,189.133 90.218 C 189.812 90.072,190.704 89.761,191.115 89.527 C 191.525 89.293,192.292 89.028,192.819 88.938 C 193.345 88.847,194.015 88.620,194.308 88.431 C 194.600 88.243,195.407 87.967,196.101 87.818 C 196.795 87.670,197.579 87.408,197.843 87.237 C 198.108 87.066,199.025 86.764,199.880 86.567 C 200.736 86.369,201.706 86.100,202.035 85.968 C 202.933 85.607,205.144 85.651,206.511 86.057 M164.572 111.965 C 164.045 112.019,163.419 112.241,163.179 112.458 C 162.911 112.700,162.105 112.910,161.082 113.003 C 160.138 113.090,159.241 113.313,159.004 113.519 C 158.775 113.720,158.192 114.010,157.709 114.165 C 157.226 114.320,156.707 114.596,156.556 114.778 C 156.404 114.961,155.965 115.179,155.579 115.264 C 155.193 115.349,154.743 115.609,154.578 115.843 C 154.414 116.077,154.010 116.350,153.680 116.449 C 153.003 116.653,152.889 116.750,150.090 119.508 C 148.051 121.516,146.499 123.462,146.499 124.009 C 146.499 124.170,146.230 124.551,145.901 124.856 C 145.517 125.212,145.302 125.670,145.302 126.132 C 145.302 126.603,145.140 126.940,144.834 127.104 C 144.551 127.255,144.309 127.710,144.224 128.249 C 144.146 128.742,143.846 129.606,143.555 130.171 C 142.758 131.723,142.736 143.909,143.528 144.983 C 143.803 145.356,144.089 146.115,144.163 146.670 C 144.236 147.225,144.523 147.967,144.800 148.318 C 145.076 148.670,145.302 149.163,145.302 149.415 C 145.302 149.667,145.572 150.123,145.901 150.428 C 146.230 150.733,146.499 151.141,146.499 151.335 C 146.499 152.257,152.873 158.947,153.751 158.947 C 153.917 158.947,154.237 159.162,154.463 159.425 C 154.688 159.689,155.019 159.904,155.197 159.904 C 155.376 159.904,155.774 160.123,156.082 160.390 C 156.389 160.656,156.918 160.933,157.255 161.005 C 157.901 161.141,158.436 161.373,159.425 161.945 C 159.755 162.135,160.540 162.293,161.171 162.294 C 161.980 162.297,162.531 162.456,163.046 162.837 L 163.774 163.375 175.864 163.375 L 187.953 163.375 188.390 162.837 C 188.630 162.540,188.945 162.298,189.091 162.298 C 189.441 162.298,191.023 160.661,191.023 160.299 C 191.023 160.144,191.239 159.615,191.502 159.124 C 191.883 158.413,191.981 157.773,191.981 155.988 C 191.981 153.078,192.318 151.264,192.938 150.839 C 193.202 150.658,193.417 150.412,193.417 150.292 C 193.417 150.007,195.012 148.414,195.297 148.414 C 195.418 148.414,196.580 147.403,197.879 146.167 C 203.204 141.097,202.700 141.472,204.182 141.473 C 205.490 141.474,205.524 141.492,207.062 143.019 C 207.917 143.868,208.914 144.689,209.276 144.842 C 209.638 144.996,209.934 145.218,209.934 145.336 C 209.934 145.455,210.200 145.673,210.526 145.821 C 211.288 146.169,211.849 145.746,211.849 144.824 C 211.849 143.371,212.124 142.669,212.691 142.669 C 213.439 142.669,213.525 143.028,213.525 146.154 C 213.525 148.788,213.545 148.895,214.114 149.268 C 214.438 149.480,214.765 149.848,214.840 150.085 C 214.915 150.323,215.172 150.568,215.410 150.630 C 215.878 150.752,216.153 152.540,216.156 155.482 C 216.157 156.302,216.298 157.129,216.483 157.397 C 216.661 157.657,216.881 158.443,216.972 159.145 C 217.153 160.545,217.752 161.307,219.731 162.657 L 220.784 163.375 230.500 163.446 C 241.247 163.525,245.340 163.327,246.038 162.695 C 246.279 162.477,246.856 162.298,247.320 162.298 C 248.404 162.298,249.596 161.881,249.764 161.443 C 249.837 161.253,250.210 161.101,250.602 161.101 C 251.008 161.101,251.614 160.846,252.021 160.503 C 252.412 160.174,252.897 159.904,253.098 159.904 C 253.299 159.904,253.784 159.635,254.175 159.306 C 254.567 158.977,255.002 158.707,255.143 158.707 C 255.284 158.707,255.517 158.487,255.661 158.217 C 255.806 157.948,256.187 157.627,256.508 157.505 C 256.829 157.383,257.092 157.131,257.092 156.946 C 257.092 156.760,257.315 156.550,257.588 156.479 C 257.861 156.408,258.143 156.126,258.214 155.853 C 258.286 155.580,258.466 155.354,258.616 155.351 C 258.765 155.348,259.210 154.956,259.605 154.481 C 260.000 154.005,260.564 153.334,260.859 152.990 C 261.665 152.050,262.528 150.688,262.720 150.055 C 262.815 149.745,263.086 149.276,263.324 149.013 C 263.561 148.749,263.835 148.103,263.932 147.576 C 264.029 147.050,264.297 146.349,264.526 146.020 C 264.768 145.674,265.008 144.732,265.096 143.784 C 265.180 142.883,265.428 141.871,265.649 141.535 C 266.239 140.635,266.234 134.642,265.643 133.740 C 265.415 133.393,265.166 132.364,265.077 131.406 C 264.971 130.262,264.781 129.562,264.506 129.299 C 264.280 129.082,264.020 128.391,263.929 127.763 C 263.838 127.135,263.564 126.434,263.319 126.207 C 263.075 125.979,262.801 125.497,262.710 125.135 C 262.620 124.773,262.444 124.476,262.320 124.476 C 262.196 124.476,261.938 124.103,261.748 123.648 C 261.346 122.687,261.135 122.438,258.339 119.627 C 255.531 116.804,255.283 116.577,255.009 116.577 C 254.879 116.577,254.459 116.308,254.077 115.979 C 253.694 115.650,253.209 115.380,252.999 115.380 C 252.789 115.380,252.369 115.165,252.067 114.903 C 251.764 114.641,251.142 114.323,250.685 114.196 C 250.228 114.070,249.656 113.788,249.415 113.570 C 249.155 113.334,248.307 113.099,247.330 112.992 C 246.395 112.889,245.385 112.616,244.994 112.360 C 244.347 111.936,168.452 111.563,164.572 111.965 M244.180 112.720 C 245.159 112.969,246.445 113.244,247.038 113.331 C 247.630 113.418,248.330 113.629,248.594 113.800 C 248.857 113.971,249.503 114.249,250.030 114.417 C 250.557 114.586,251.095 114.809,251.227 114.912 C 251.358 115.015,252.211 115.494,253.121 115.976 C 255.083 117.017,257.193 118.756,259.007 120.828 C 259.731 121.655,260.444 122.469,260.591 122.638 C 260.739 122.806,261.050 123.316,261.283 123.770 C 261.516 124.224,261.778 124.650,261.865 124.716 C 262.221 124.985,263.503 127.526,263.673 128.297 C 263.773 128.752,264.043 129.506,264.274 129.973 C 264.505 130.439,264.825 131.951,264.985 133.333 C 265.145 134.716,265.386 136.141,265.520 136.500 C 265.653 136.859,265.701 137.505,265.625 137.936 C 265.341 139.556,265.017 141.649,264.790 143.337 C 264.661 144.297,264.451 145.213,264.325 145.372 C 264.199 145.531,263.957 146.092,263.787 146.618 C 263.209 148.412,261.798 151.099,260.647 152.603 C 258.815 154.995,253.474 159.665,252.571 159.665 C 252.460 159.665,252.103 159.874,251.779 160.129 C 251.454 160.384,250.874 160.668,250.490 160.761 C 250.105 160.853,249.467 161.098,249.072 161.305 C 246.573 162.615,244.508 162.822,232.765 162.941 L 221.724 163.053 220.317 162.339 C 217.645 160.983,216.906 159.439,216.885 155.169 C 216.873 152.777,216.186 150.819,214.908 149.533 L 213.915 148.534 213.780 145.542 L 213.645 142.549 212.832 142.472 C 211.879 142.381,211.619 142.682,211.613 143.880 C 211.604 146.095,211.007 145.947,207.832 142.942 C 205.065 140.322,203.596 140.216,201.131 142.457 C 191.393 151.311,191.263 151.491,191.263 156.041 C 191.263 159.675,190.535 161.090,187.987 162.408 L 186.745 163.050 175.659 162.954 C 166.305 162.873,164.422 162.799,163.615 162.482 C 163.088 162.275,162.041 162.029,161.288 161.936 C 160.535 161.842,159.800 161.623,159.655 161.449 C 159.511 161.275,159.050 161.057,158.631 160.966 C 157.824 160.790,155.503 159.625,154.886 159.086 C 154.684 158.909,154.191 158.600,153.791 158.397 C 152.159 157.572,146.738 151.848,146.738 150.950 C 146.738 150.781,146.523 150.448,146.260 150.209 C 145.996 149.971,145.781 149.647,145.781 149.490 C 145.781 149.332,145.518 148.708,145.196 148.103 C 144.874 147.497,144.534 146.592,144.441 146.092 C 144.348 145.592,144.046 144.752,143.770 144.225 C 142.996 142.750,143.002 132.522,143.777 131.048 C 144.057 130.516,144.362 129.630,144.455 129.080 C 144.548 128.531,144.816 127.836,145.051 127.535 C 145.287 127.235,145.553 126.651,145.644 126.237 C 145.734 125.822,146.017 125.294,146.273 125.063 C 146.529 124.831,146.738 124.539,146.738 124.414 C 146.738 124.289,146.981 123.882,147.277 123.510 C 147.573 123.138,148.085 122.443,148.414 121.966 C 149.945 119.745,153.118 117.047,155.823 115.667 C 156.158 115.495,156.595 115.252,156.792 115.126 C 156.990 115.001,157.421 114.780,157.750 114.636 C 158.079 114.492,158.806 114.171,159.367 113.922 C 159.927 113.674,160.842 113.406,161.401 113.327 C 161.960 113.248,162.902 113.037,163.495 112.858 C 164.087 112.680,164.841 112.489,165.171 112.433 C 167.611 112.025,242.512 112.297,244.180 112.720 " stroke="none" fill="#bcbccc" fill-rule="evenodd"></path></g></svg>